<?xml version="1.0" encoding="utf-8"?>
<!-- Generator: Adobe Illustrator 15.1.0, SVG Export Plug-In . SVG Version: 6.00 Build 0)  -->
<!DOCTYPE svg PUBLIC "-//W3C//DTD SVG 1.1//EN" "http://www.w3.org/Graphics/SVG/1.1/DTD/svg11.dtd">
<svg version="1.1" id="Layer_1" xmlns="http://www.w3.org/2000/svg" xmlns:xlink="http://www.w3.org/1999/xlink" x="0px" y="0px"
	 width="500px" height="500px" viewBox="0 0 500 500" enable-background="new 0 0 500 500" xml:space="preserve">
<g id="icon">
	<path d="M248.761,241.765c10.939,14.624,17.42,32.761,17.42,52.386c0,48.335-39.321,87.656-87.654,87.656
		c-48.337,0-87.659-39.321-87.659-87.656c0-48.331,39.321-87.652,87.659-87.652c22.859,0,43.697,8.804,59.319,23.189
		c2.159-2.833,4.453-5.54,6.893-8.115c-17.485-15.963-40.728-25.713-66.211-25.713c-54.198,0-98.295,44.098-98.295,98.291
		c0,54.203,44.097,98.295,98.295,98.295c54.201,0,98.293-44.092,98.293-98.295c0-22.965-7.942-44.107-21.194-60.857
		C253.168,235.958,250.868,238.781,248.761,241.765z"/>
	<path d="M410.32,257.18c-14.142-38.567-51.234-64.477-92.292-64.477c-8.186,0-16.282,1.077-24.2,3.1l31.865-73.702l0.933-2.182
		l-45.854-25.371l-60.768,22.285l-0.567,0.21l-18.572,49l74.035,36.661c-20.281,9.862-36.437,26.251-46.046,46.987
		c-11.04,23.825-12.142,50.522-3.1,75.167c3.629,9.909,8.78,18.966,15.12,26.978c2.482-2.683,4.786-5.525,6.912-8.509
		c-4.982-6.668-9.094-14.071-12.049-22.126c-8.059-21.98-7.08-45.792,2.763-67.038c9.778-21.1,27.15-37.148,48.926-45.258
		l0.604,0.299l0.271-0.623c9.609-3.465,19.603-5.24,29.727-5.24c36.614,0,69.693,23.104,82.304,57.499
		c16.643,45.381-6.738,95.837-52.119,112.471c-9.74,3.577-19.893,5.39-30.171,5.39c-22.411,0-43.47-8.691-59.349-23.292
		c-2.164,2.828-4.481,5.525-6.926,8.105c17.775,16.212,41.283,25.82,66.274,25.82c11.529,0,22.917-2.027,33.838-6.031
		C402.763,364.645,428.981,308.062,410.32,257.18z M290.605,184.237l1.648-47.811l22.608-8.293L290.605,184.237z M312.751,120.87
		l-21.7,7.96l-5.081-22.786L312.751,120.87z M277.719,103.712l4.927,22.065l-21.606-15.949L277.719,103.712z M284.594,139.236
		l-1.893,55.111l-35.865-41.264L284.594,139.236z M279.709,132.989l-32.718,12.002l8.326-29.998L279.709,132.989z M247.543,114.778
		l-7.708,27.778l-11.951-20.571L247.543,114.778z M223.081,128.742l11.974,20.627l-22.995,8.429L223.081,128.742z M215.153,164.7
		l23.077-8.461l0.141,0.613l1.147-0.693l31.426,36.16L215.153,164.7z"/>
</g>
</svg>
